<svg width="113" height="32" viewBox="0 0 113 32" fill="none" xmlns="http://www.w3.org/2000/svg">
<path d="M27.7449 15.5031V8.21843C27.7449 5.68731 25.9854 3.49916 23.516 2.95383C20.4327 2.27132 17.8056 1.24927 16.077 0.470727C14.6777 -0.156909 13.0726 -0.156909 11.6733 0.470727C9.94468 1.24584 7.31753 2.26789 4.23423 2.95383C1.76484 3.50259 0.00197304 5.69074 0.00197304 8.21843V15.4997C0.00197304 15.4997 -0.450748 28.0558 12.3592 31.7839C13.347 32.072 14.3964 32.072 15.3842 31.7839C28.1941 28.0558 27.7414 15.4997 27.7414 15.4997L27.7449 15.5031Z" fill="white"/>
<path d="M13.875 23.3505C13.2851 23.3505 12.6951 23.1995 12.1704 22.8943L8.75785 20.9257C7.70493 20.3186 7.05328 19.1868 7.05328 17.9727V14.0319C7.05328 12.8178 7.70493 11.686 8.75785 11.079L12.1704 9.11032C13.2233 8.50326 14.5266 8.50326 15.5795 9.11032L18.9921 11.079C20.045 11.686 20.6966 12.8178 20.6966 14.0319V17.9727C20.6966 19.1868 20.045 20.3186 18.9921 20.9257L15.5795 22.8943C15.0548 23.1995 14.4649 23.3505 13.875 23.3505ZM13.875 9.53904C13.4394 9.53904 13.0004 9.65222 12.6128 9.87515L9.20028 11.8438C8.42174 12.2931 7.93815 13.1299 7.93815 14.0285V17.9692C7.93815 18.8678 8.42174 19.7047 9.20028 20.154L12.6128 22.1226C13.3914 22.5719 14.3586 22.5719 15.1371 22.1226L18.5497 20.154C19.3282 19.7047 19.8118 18.8678 19.8118 17.9692V14.0285C19.8118 13.1299 19.3282 12.2931 18.5497 11.8438L15.1371 9.87515C14.7461 9.64879 14.3105 9.53904 13.875 9.53904Z" fill="#0A5B51"/>
<path d="M12.942 21.5976C12.8734 21.5599 12.8117 21.529 12.7534 21.4947C12.5579 21.3747 12.3624 21.2512 12.1669 21.1312C11.9062 20.9734 11.6456 20.8191 11.3815 20.6682C11.0694 20.4898 10.7538 20.3149 10.4417 20.1366C10.2017 20.0028 9.96158 19.8725 9.7215 19.7353C9.52943 19.6255 9.3408 19.5123 9.1556 19.3889C9.01155 19.2928 8.88808 19.1762 8.78862 19.0288C8.69602 18.895 8.65143 18.7441 8.62399 18.5863C8.56912 18.2948 8.56569 17.9998 8.57255 17.7049C8.57598 17.4854 8.58626 17.2659 8.59312 17.0464C8.59312 17.0018 8.61027 16.9847 8.65486 16.9812C9.03556 16.9538 9.32365 16.7754 9.50885 16.4393C9.54658 16.3742 9.58774 16.3399 9.66662 16.3399C9.77294 16.3399 9.87583 16.3159 9.97872 16.3159C10.0713 16.3159 10.1674 16.3296 10.2565 16.3467C10.2908 16.3536 10.3251 16.381 10.3457 16.4119C10.4932 16.6554 10.7127 16.8097 10.9836 16.8818C11.2786 16.9572 11.5632 16.9161 11.8273 16.7549C12.0263 16.6348 12.1737 16.4702 12.2458 16.2507C12.3589 15.9112 12.3144 15.5888 12.0811 15.3075C11.9645 15.1703 11.8239 15.0675 11.6558 15.0023C11.6318 14.992 11.6044 14.9646 11.601 14.944C11.5701 14.7245 11.5427 14.5084 11.5838 14.282C11.601 14.1894 11.6387 14.1517 11.7142 14.1174C11.9577 14.0042 12.1291 13.819 12.2183 13.5687C12.3624 13.1708 12.2458 12.7318 11.8822 12.4574C11.6353 12.2722 11.3575 12.2174 11.0625 12.2585C10.6612 12.3134 10.3045 12.6049 10.2051 13.0302C10.1125 13.4315 10.3011 13.843 10.6338 14.0523C10.6715 14.0763 10.7127 14.1071 10.7538 14.1209C10.8464 14.1517 10.8773 14.2203 10.8773 14.3061C10.8773 14.4913 10.8807 14.673 10.8773 14.8582C10.8773 14.9406 10.8533 15.0091 10.7607 15.0537C10.5721 15.1429 10.4246 15.287 10.3217 15.4722C10.3045 15.5065 10.2462 15.527 10.2051 15.5339C9.9993 15.5613 9.79695 15.5648 9.59117 15.5339C9.52943 15.527 9.48142 15.4996 9.44369 15.4447C9.30307 15.2355 9.10415 15.1052 8.86064 15.0469C8.79548 15.0297 8.72688 15.0229 8.65829 15.0126C8.61713 15.0057 8.59312 14.9886 8.59312 14.944C8.58283 14.5153 8.54854 14.0831 8.59312 13.6544C8.63428 13.2943 8.74403 12.965 9.05613 12.7455C9.27221 12.5946 9.49857 12.454 9.72493 12.3168C9.86897 12.2277 10.0165 12.1522 10.1639 12.0699C10.3731 11.9533 10.5858 11.8435 10.7916 11.7235C11.1174 11.5383 11.4432 11.3497 11.7656 11.1576C11.9817 11.0307 12.1977 10.8935 12.4138 10.7666C12.6093 10.65 12.8082 10.5368 13.0072 10.4236C13.014 10.4202 13.0243 10.4168 13.0483 10.4099C13.0415 10.4648 13.038 10.5094 13.0312 10.554C12.9831 10.8146 13.0517 11.0478 13.1992 11.2639C13.309 11.4251 13.4599 11.528 13.6279 11.6069C13.6657 11.624 13.6828 11.6446 13.6828 11.6892C13.6828 11.9224 13.6828 12.1556 13.6828 12.3889C13.6828 12.43 13.6657 12.4472 13.6314 12.4712C13.5113 12.5398 13.3844 12.6049 13.285 12.6975C13.1341 12.8347 13.0483 13.0131 13.0037 13.2188C12.9626 13.4178 12.9969 13.603 13.0723 13.7813C13.1581 13.9871 13.309 14.138 13.5045 14.2478C13.7685 14.3987 14.0498 14.4055 14.331 14.3438C14.5814 14.2889 14.7837 14.138 14.9244 13.9219C14.9792 13.8362 15.0478 13.8087 15.1301 13.7882C15.2673 13.7573 15.4045 13.7436 15.5417 13.7813C15.5966 13.7985 15.6549 13.8053 15.7098 13.8225C15.7269 13.8259 15.7441 13.843 15.7543 13.8602C15.8538 14.0557 15.991 14.2135 16.1865 14.3163C16.2825 14.3678 16.3923 14.3987 16.4986 14.4261C16.5843 14.4467 16.6735 14.457 16.7627 14.4535C17.1091 14.4364 17.3937 14.3026 17.5995 14.0111C17.7539 13.795 17.7985 13.5515 17.7573 13.3012C17.7161 13.0336 17.5789 12.8176 17.3457 12.6632C17.1983 12.5638 17.0439 12.5089 16.869 12.4849C16.574 12.4437 16.31 12.5055 16.0733 12.6804C15.991 12.7387 15.9155 12.8176 15.8607 12.8999C15.8058 12.9788 15.7372 13.0096 15.6549 13.0131C15.48 13.0199 15.3051 13.0199 15.1301 13.0131C15.0513 13.0131 14.9827 12.9822 14.9415 12.9033C14.842 12.7112 14.6808 12.5912 14.4922 12.4952C14.4682 12.4849 14.4442 12.4472 14.4442 12.4197C14.4408 12.1762 14.4442 11.9293 14.4442 11.6858C14.4442 11.6652 14.4648 11.6309 14.4854 11.6206C14.6191 11.5589 14.7426 11.48 14.8455 11.3702C15.0135 11.1919 15.0924 10.9792 15.1096 10.7426C15.1096 10.7117 15.1096 10.6809 15.1096 10.6431C15.1336 10.65 15.1473 10.65 15.161 10.6569C15.3256 10.7563 15.4868 10.8626 15.6515 10.9621C15.8881 11.1027 16.1282 11.2433 16.3683 11.3839C16.6324 11.5383 16.8964 11.6892 17.164 11.8401C17.4246 11.9876 17.6921 12.1248 17.9494 12.2722C18.1654 12.3957 18.3781 12.5226 18.5839 12.6598C18.7416 12.7627 18.8822 12.8862 18.9851 13.0508C19.0709 13.1948 19.1257 13.3492 19.1463 13.5172C19.2081 13.9734 19.1635 14.4295 19.1738 14.8857C19.1738 14.9406 19.1566 14.9646 19.0983 14.9714C18.8479 14.9954 18.6284 15.0915 18.4501 15.2698C18.2958 15.4276 18.1963 15.6128 18.1791 15.8391C18.1654 15.9969 18.1757 16.1512 18.2306 16.2987C18.2409 16.3296 18.2203 16.3845 18.1929 16.4119C18.018 16.6142 17.8465 16.82 17.6613 17.0155C17.5549 17.1287 17.4315 17.2247 17.308 17.3242C17.1845 17.4237 17.0508 17.5197 16.9239 17.6157C16.8861 17.6432 16.8519 17.6466 16.8073 17.6363C16.6324 17.6054 16.4574 17.602 16.2791 17.6363C16.0424 17.6843 15.8572 17.8146 15.7063 17.9998C15.5829 18.1473 15.5177 18.3222 15.5005 18.5143C15.48 18.7578 15.5417 18.9773 15.6892 19.1694C15.8367 19.3649 16.0322 19.5055 16.2791 19.5501C16.4128 19.5741 16.55 19.5878 16.6838 19.5775C16.9307 19.5604 17.1434 19.4575 17.3183 19.2791C17.4486 19.1488 17.5378 18.9945 17.5789 18.8161C17.6167 18.6515 17.6167 18.4869 17.5652 18.3257C17.5412 18.2571 17.5447 18.2022 17.5927 18.1473C17.7196 17.9896 17.8465 17.8284 17.9734 17.6706C18.0145 17.6192 18.0591 17.5746 18.0968 17.5197C18.1689 17.4099 18.2855 17.3585 18.3849 17.283C18.553 17.1527 18.7313 17.0395 18.9062 16.9195C18.992 16.9298 19.0777 16.9401 19.1635 16.9538C19.1703 16.9538 19.1772 16.9881 19.1772 17.0087C19.1772 17.4648 19.1909 17.9244 19.1738 18.3805C19.16 18.7338 19.0469 19.0562 18.7519 19.2894C18.5393 19.4609 18.306 19.6015 18.066 19.7318C17.9151 19.8142 17.7676 19.9033 17.6167 19.9856C17.4178 20.0954 17.2154 20.2051 17.0165 20.3149C16.9102 20.3732 16.8038 20.4384 16.6975 20.5001C16.4574 20.6373 16.2174 20.7745 15.9773 20.9151C15.7818 21.0283 15.5932 21.1517 15.4011 21.2684C15.2159 21.3815 15.0307 21.4879 14.8455 21.5976C14.8455 21.4501 14.8592 21.3061 14.8523 21.162C14.842 20.946 14.7906 20.7402 14.6466 20.5721C14.5642 20.4795 14.4819 20.3766 14.3482 20.3458C14.3276 20.3423 14.3036 20.3012 14.307 20.2772C14.307 20.1537 14.3207 20.0302 14.3276 19.9102C14.331 19.7867 14.3344 19.6633 14.3344 19.5398C14.3344 19.4781 14.3516 19.4266 14.4099 19.3854C14.6328 19.2345 14.7837 19.0219 14.842 18.7612C14.9175 18.4389 14.8661 18.137 14.6466 17.8729C14.5197 17.722 14.3619 17.626 14.1767 17.5711C13.9812 17.5128 13.7788 17.5197 13.5902 17.5849C13.3055 17.6775 13.0895 17.8592 12.9488 18.1302C12.8219 18.3771 12.7979 18.6309 12.87 18.8916C12.9488 19.1694 13.1169 19.382 13.3913 19.4918C13.4702 19.5261 13.4839 19.5604 13.4736 19.6838C13.4633 19.8107 13.4564 19.9376 13.4462 20.0645C13.4393 20.164 13.4359 20.26 13.4256 20.3595C13.4256 20.3835 13.4084 20.4144 13.3913 20.4246C13.2095 20.531 13.0895 20.6887 13.0209 20.8842C12.9557 21.0694 12.9214 21.2615 12.9283 21.457C12.9283 21.5016 12.942 21.5462 12.9488 21.6045L12.942 21.5976ZM16.574 16.9264C16.8621 16.9401 17.1159 16.8269 17.3286 16.6142C17.4898 16.4531 17.5824 16.2576 17.5995 16.0243C17.6167 15.7774 17.5618 15.5545 17.4075 15.359C17.2531 15.1635 17.0576 15.0332 16.8073 14.9817C16.6049 14.9406 16.4094 14.944 16.2139 15.0057C15.9979 15.0743 15.8229 15.2046 15.6858 15.3864C15.6652 15.4139 15.6309 15.4413 15.5966 15.4516C15.5348 15.4687 15.4697 15.4722 15.4045 15.4824C15.3359 15.4927 15.2639 15.5133 15.1987 15.503C15.0513 15.4824 14.9072 15.4481 14.7632 15.407C14.7151 15.3933 14.6637 15.3624 14.6294 15.3247C14.4888 15.1738 14.3173 15.0709 14.1184 15.0229C13.8509 14.9543 13.5902 14.9817 13.3364 15.1052C12.9008 15.3212 12.6608 15.8357 12.8528 16.3227C12.8665 16.3604 12.8631 16.3913 12.8322 16.4256C12.7774 16.4873 12.7293 16.5559 12.6779 16.6211C12.551 16.7686 12.4378 16.9332 12.2938 17.0601C12.0674 17.259 11.817 17.4305 11.577 17.6123C11.5598 17.6226 11.5324 17.6226 11.5118 17.6192C11.3986 17.5986 11.2854 17.5608 11.1688 17.5608C10.9116 17.5608 10.675 17.6294 10.4692 17.7975C10.2497 17.9758 10.1262 18.2056 10.1022 18.48C10.0816 18.7132 10.1468 18.9293 10.2908 19.1214C10.5 19.3992 10.7813 19.5295 11.1208 19.5466C11.3746 19.5569 11.601 19.4815 11.8068 19.334C11.9954 19.1968 12.1154 19.0082 12.1737 18.7887C12.2218 18.6138 12.2149 18.4389 12.1566 18.2639C12.1497 18.2399 12.1497 18.2022 12.1669 18.1816C12.3281 17.9724 12.479 17.7529 12.6573 17.5608C12.8905 17.307 13.1889 17.1287 13.4805 16.9401C13.501 16.9264 13.5353 16.9229 13.5559 16.9332C13.772 17.0018 13.9846 16.9812 14.1938 16.9161C14.4202 16.844 14.5951 16.7068 14.7254 16.5114C14.7597 16.4599 14.794 16.429 14.8592 16.4256C14.9106 16.4256 14.9621 16.405 15.017 16.3913C15.1267 16.3707 15.233 16.333 15.3496 16.3776C15.4148 16.405 15.4868 16.4188 15.5554 16.4393C15.624 16.4599 15.6823 16.4839 15.7303 16.5422C15.9464 16.8029 16.2242 16.9366 16.5809 16.9264H16.574Z" fill="#0A5B51"/>
<path d="M93.2843 3.53638H92.691C92.5984 3.56038 92.5024 3.58439 92.4098 3.60497C91.8507 3.74216 91.2917 3.86906 90.7361 4.01311C90.4308 4.09199 90.3039 4.27033 90.3074 4.62359C90.3245 6.4482 90.3211 8.2728 90.3211 10.0974V16.288C90.3108 17.4198 90.3176 18.5551 90.3176 19.6869H90.2662V20.5306C90.2696 21.5423 90.2731 22.5541 90.2593 23.5659C90.2525 24.0597 89.985 24.461 89.5288 24.6325C88.932 24.852 88.3181 25.0406 87.6974 25.1538C86.7199 25.3321 85.7287 25.3116 84.7684 25.0338C83.2387 24.5845 82.1721 23.6173 81.6679 22.0842C81.0986 20.3522 81.1157 18.6168 81.8394 16.9328C82.4465 15.5198 83.5508 14.6692 85.0565 14.3811C86.4318 14.117 87.7694 14.2645 89.0727 14.7172V11.483C87.7419 11.0474 86.3666 10.9171 84.9467 11.0783C82.4328 11.3664 80.4538 12.5428 79.1642 14.7412C77.7478 17.1489 77.5454 19.752 78.2142 22.41C78.9756 25.4282 80.8722 27.3968 83.9281 28.1651C84.518 28.3126 85.1354 28.3606 85.739 28.4566H86.8502C86.9943 28.4326 87.1383 28.3983 87.2824 28.388C88.5376 28.2988 89.7689 28.0793 90.9521 27.6438C91.9365 27.2802 92.7802 26.7452 93.2843 25.778C93.641 25.0921 93.689 24.3478 93.689 23.5933C93.6856 17.3855 93.6856 11.1778 93.689 4.97342C93.689 4.44868 93.7508 3.9205 93.2843 3.53638Z" fill="white"/>
<path d="M102.822 28.4601C102.304 28.3675 101.78 28.3058 101.272 28.172C97.7738 27.246 95.5582 25.027 94.8002 21.4875C93.7748 16.6962 96.8992 12.0627 101.704 11.1778C104.253 10.7079 106.616 11.2121 108.742 12.7246C108.831 12.7898 108.913 12.8618 108.968 12.9064C108.217 13.7089 107.473 14.5046 106.718 15.3106C105.206 14.2851 103.621 13.997 101.924 14.46C100.648 14.8064 99.6498 15.5644 98.9296 16.6653C97.4686 18.8947 97.863 22.1049 99.7939 23.8334C101.749 25.586 104.829 25.6477 106.832 24.0564C108.958 22.3655 109.675 18.7026 107.641 16.1852C108.385 15.3689 109.123 14.5595 109.884 13.7227C110.676 14.5595 111.249 15.4307 111.623 16.4287C111.829 16.9774 111.969 17.5502 112.141 18.1093V21.4361C112.117 21.4875 112.083 21.539 112.069 21.5938C111.194 25.1916 108.927 27.3832 105.343 28.2372C104.904 28.3401 104.451 28.3881 104.006 28.4635H102.822V28.4601Z" fill="white"/>
<path d="M40.1888 28.4606C39.5063 28.3851 38.8135 28.3611 38.1413 28.2273C37.0815 28.0216 36.0354 27.7472 34.9859 27.4865C34.8831 27.4591 34.7322 27.3288 34.7287 27.2396C34.6841 26.2175 34.8385 25.2332 35.3255 24.3689C36.5122 24.6124 37.6611 24.8902 38.8204 25.0789C40.0859 25.2881 41.3652 25.3738 42.6376 25.0857C42.912 25.024 43.1795 24.928 43.4367 24.8114C44.0575 24.5336 44.3216 24.0157 44.3147 23.3572C44.3079 22.7055 44.0095 22.2322 43.4162 21.9476C42.4936 21.5051 41.4887 21.3851 40.4975 21.2102C39.2011 20.9804 37.9081 20.7506 36.7008 20.1881C34.7081 19.2621 33.9433 17.4752 34.156 15.438C34.3995 13.0749 35.8914 11.8539 38.035 11.3258C39.6195 10.9348 41.2349 10.9039 42.84 11.144C43.9924 11.3155 45.1242 11.5967 46.2697 11.8128C46.5646 11.8677 46.6332 12.0186 46.6229 12.2964C46.5989 13.1298 46.4857 13.9392 46.105 14.6903C46.0673 14.7658 46.0227 14.8344 46.0262 14.8309C44.6166 14.6217 43.2618 14.3851 41.8968 14.2273C40.8919 14.1107 39.8801 14.1347 38.8924 14.4091C37.9149 14.68 37.5136 15.1773 37.5205 16.0656C37.5239 16.6349 37.7949 17.0774 38.2956 17.2592C39.0879 17.5472 39.9041 17.7839 40.7307 17.952C42.1266 18.24 43.5465 18.4115 44.8738 18.974C46.1668 19.5193 47.1477 20.4042 47.5112 21.7761C48.1389 24.1426 47.5695 26.9001 44.4759 27.9084C43.6562 28.1759 42.7714 28.2376 41.9139 28.3885C41.7322 28.4194 41.5504 28.4331 41.3686 28.4537H40.1854L40.1888 28.4606Z" fill="white"/>
<path d="M69.1768 28.4596C68.4292 28.3189 67.6575 28.2572 66.9407 28.0206C64.5433 27.2317 63.1543 25.51 62.6055 23.0887C62.4649 22.4679 62.386 21.8231 62.3826 21.1886C62.3586 18.1567 62.3757 15.1249 62.3654 12.0964C62.3654 11.7843 62.4409 11.6197 62.7496 11.4894C63.4767 11.1807 64.2381 11.0641 65.0132 11.0195C65.4385 10.9955 65.7609 11.3316 65.7609 11.7603C65.7643 14.8642 65.754 17.9715 65.778 21.0754C65.7849 22.1283 66.0592 23.1229 66.7315 23.9667C67.3351 24.7212 68.1651 25.0882 69.0945 25.1842C70.168 25.2974 71.2381 25.1979 72.2601 24.8309C73.265 24.4708 73.5017 24.0901 73.5051 22.996C73.5051 19.412 73.5051 15.8245 73.5051 12.2405C73.5051 11.6266 73.4914 11.582 74.0882 11.4208C74.7604 11.239 75.4498 11.1156 76.1391 11.0264C76.5713 10.9681 76.8868 11.311 76.8902 11.7603C76.8937 14.9774 76.8971 18.191 76.8971 21.4081C76.8971 22.2964 76.8834 23.1813 76.8765 24.0695C76.8662 25.8256 75.9574 26.9436 74.3694 27.5644C73.145 28.0446 71.8726 28.3052 70.5659 28.3944C70.4458 28.4013 70.3292 28.439 70.2092 28.4596H69.1734H69.1768Z" fill="white"/>
<path d="M56.161 28.4599C55.2898 28.3124 54.3947 28.2507 53.5544 28.0072C50.5671 27.1429 48.5848 25.2223 47.8096 22.1835C47.1717 19.6764 47.4152 17.2448 48.7665 14.9949C49.8469 13.1909 51.4623 12.0659 53.4584 11.4623C55.2144 10.9307 57.0013 10.893 58.7916 11.1982C59.6387 11.3422 60.4653 11.5858 61.3021 11.7812C61.4942 11.8258 61.5936 11.915 61.5936 12.1311C61.6005 12.9645 61.4907 13.7705 61.1512 14.5422C61.0346 14.8028 60.9248 14.8783 60.6264 14.7891C59.3266 14.3947 57.989 14.1683 56.6274 14.2026C54.8268 14.2438 53.1909 14.7445 52.0282 16.2296C51.013 17.526 50.7729 19.0282 50.9753 20.6265C51.1948 22.3413 52.0316 23.648 53.551 24.4952C54.3501 24.941 55.2212 25.1468 56.1267 25.2017C57.6941 25.2909 59.2134 25.0233 60.7088 24.5706C60.8254 24.5363 60.942 24.502 61.0826 24.4609C61.5971 25.3937 61.7583 26.3884 61.6999 27.4207C61.6965 27.4996 61.5285 27.6059 61.4153 27.6402C60.1737 28.0586 58.9013 28.3193 57.5912 28.3982C57.4848 28.405 57.3785 28.4393 57.2688 28.4599H56.161Z" fill="white"/>
</svg>
