<svg width="233" height="281" viewBox="0 0 233 281" fill="none" xmlns="http://www.w3.org/2000/svg">
<path d="M137.664 251.01C137.664 251.01 141.264 249.43 142.284 245.983C143.303 242.537 143.958 237.793 146.747 236.571C149.535 235.349 155.396 232.086 155.565 228.003C155.735 223.92 146.917 219.079 148.947 218.063C150.978 217.046 154.643 214.338 151.04 212.13C147.437 209.921 145.52 209.533 144.568 206.542C143.616 203.551 140.134 202.019 139.368 206.569C138.602 211.118 136.445 212.154 136.903 215.951C137.362 219.748 139.554 223.314 133.468 224.16C127.381 225.007 129.598 229.12 130.954 232.116C132.311 235.112 132.653 246.949 133.06 248.99C133.468 251.032 135.177 252.391 137.664 251.01Z" fill="url(#paint0_linear_31_2828)"/>
<path d="M130.005 210.903C129.714 208.664 125.854 207.629 125.253 210.433C124.652 213.238 126.062 216.954 120.768 220.22C115.474 223.486 123.565 227.34 125.55 231.258C127.535 235.177 127.184 239.476 128.834 242.874C130.485 246.272 130.097 252.876 132.958 251.369C135.819 249.861 134.894 246.266 136.542 242.321C138.19 238.375 143.699 237.466 140.002 233.232C136.305 228.998 131.949 226.585 135.533 221.269C137.116 218.918 130.919 217.86 130.005 210.903Z" fill="url(#paint1_linear_31_2828)"/>
<path d="M131.108 250.824C131.108 250.824 133.964 248.151 132.505 242.404C131.046 236.657 128.284 236.493 137.017 235.546C145.749 234.6 142.297 220.714 149.152 221.523C156.008 222.332 167.974 206.032 171.992 210.061C176.01 214.09 166.407 220.765 168.915 224.665C171.423 228.564 170.692 232.132 162.577 232.402C154.462 232.671 162.949 247.504 152.143 247.323C141.337 247.143 139.66 260.735 131.108 250.824Z" fill="url(#paint2_linear_31_2828)"/>
<path d="M171.763 244.308C171.763 244.308 175.36 242.725 176.382 239.279C177.404 235.832 178.054 231.088 180.843 229.867C183.631 228.645 189.492 225.39 189.664 221.302C189.837 217.213 181.015 212.375 183.046 211.361C185.077 210.347 188.742 207.634 185.136 205.428C181.531 203.222 179.619 202.831 178.664 199.84C177.709 196.849 174.23 195.32 173.464 199.87C172.698 204.419 170.544 205.458 171.013 209.252C171.482 213.047 173.661 216.617 167.577 217.464C161.493 218.311 163.707 222.421 165.061 225.417C166.415 228.413 166.763 240.25 167.167 242.294C167.572 244.338 169.265 245.692 171.763 244.308Z" fill="url(#paint3_linear_31_2828)"/>
<path d="M170.228 246.371C170.228 246.371 178.491 243.251 181.064 243.812C183.637 244.373 188.418 245.735 190.303 243.58C192.188 241.425 193.709 234.16 199.761 234.972C205.813 235.784 208.043 234.338 207.695 230.724C207.347 227.111 217.153 221.628 215.384 219.64C213.615 217.653 200.252 221.312 196.28 222.704C192.307 224.096 188.459 220.919 186.266 224.775C184.074 228.632 176.738 231.927 174.298 231.266C171.857 230.606 169.888 230.261 169.29 233.92C168.691 237.58 166.226 239.823 165.576 242.1C164.926 244.376 164.066 246.018 170.228 246.371Z" fill="url(#paint4_linear_31_2828)"/>
<path d="M164.104 204.204C163.81 201.968 159.95 200.93 159.352 203.737C158.753 206.545 160.161 210.258 154.867 213.521C149.573 216.784 157.664 220.641 159.648 224.559C161.633 228.478 161.283 232.779 162.93 236.177C164.578 239.575 164.195 246.177 167.057 244.67C169.918 243.162 168.996 239.567 170.641 235.638C172.286 231.709 177.798 230.767 174.101 226.55C170.403 222.332 166.048 219.899 169.632 214.584C171.212 212.227 165.015 211.164 164.104 204.204Z" fill="url(#paint5_linear_31_2828)"/>
<path d="M165.22 244.125C165.22 244.125 168.076 241.452 166.617 235.708C165.158 229.964 162.394 229.794 171.129 228.847C179.864 227.901 176.409 214.015 183.265 214.824C190.12 215.633 202.086 199.333 206.104 203.36C210.122 207.386 200.519 214.063 203.027 217.966C205.535 221.868 204.791 225.447 196.679 225.695C188.567 225.943 197.048 240.797 186.242 240.619C175.436 240.441 173.756 254.038 165.22 244.125Z" fill="url(#paint6_linear_31_2828)"/>
<path d="M232.633 263.912C226.877 240.564 212.98 225.003 173.97 233.221C134.96 241.438 122.309 250.778 99.2218 243.386C76.1348 235.994 -0.388528 233.221 0.0014854 249.249C0.391499 265.278 25.8455 284.49 80.7388 279.452C135.632 274.414 239.963 293.667 232.633 263.912Z" fill="#2A2A2A"/>
<path d="M84.2262 94.7658L84.5916 95.2123C84.9975 95.7034 85.6144 96.43 86.4019 97.3879C90.9399 102.79 100.909 114.314 104.7 116.392C107.387 117.862 107.789 113.222 105.106 110.377C102.67 107.779 93.2332 91.0233 89.5882 87.4189C87.8185 85.6654 85.4115 69.1005 85.4115 69.1005C85.4115 69.1005 83.2359 82.9215 83.4835 84.5248C83.7311 86.1282 82.6756 92.8337 84.2262 94.7658Z" fill="#FFBF55"/>
<path d="M105.114 110.377C105.114 110.377 106.681 112.431 107.493 112.686C108.304 112.942 109.242 114.371 109.928 114.716C110.614 115.061 112.834 115.434 113.37 116.055C113.593 116.311 114.308 118.401 114.815 118.868C115.322 119.335 116.463 120.159 116.033 120.581C115.602 121.003 114.368 120.545 114.368 120.545C114.487 120.666 114.566 120.821 114.596 120.988C114.627 121.154 114.607 121.327 114.539 121.482C114.032 122.428 113.354 122.416 113.354 122.416C113.354 122.416 113.484 123.167 113.171 123.508C113.011 123.715 112.809 123.886 112.578 124.009C112.347 124.133 112.093 124.207 111.832 124.226C111.72 124.618 111.475 124.959 111.138 125.188C110.915 125.335 110.66 125.423 110.394 125.444C110.129 125.465 109.862 125.419 109.619 125.31C109.619 125.31 108.852 126.154 108.256 125.927C107.659 125.7 107.351 125.225 106.941 124.924C106.531 124.624 103.843 120.93 103.076 117.618C102.594 115.59 101.681 113.69 100.401 112.045L105.114 110.377Z" fill="#EEA886"/>
<path d="M135.333 149.656L90.1158 149.733L90.0712 148.722C90.0428 148.109 89.503 133.542 97.6941 124.965C101.481 120.999 106.522 118.986 112.672 118.974C118.821 118.962 123.867 120.963 127.666 124.912C135.889 133.46 135.398 148.049 135.378 148.645L135.333 149.656ZM92.1697 147.626L133.267 147.553C133.219 144.164 132.553 133.034 126.14 126.373C122.754 122.858 118.225 121.097 112.676 121.097C107.127 121.097 102.597 122.903 99.2203 126.434C92.8232 133.119 92.1859 144.233 92.1859 147.622L92.1697 147.626Z" fill="#FACE87"/>
<path d="M98.0268 127.806C98.0268 127.806 104.046 120.037 114.263 121.133V119.018C114.263 119.018 104.395 117.675 97.1582 125.574L98.0268 127.806Z" fill="#FACE87"/>
<path d="M99.2446 140.913C90.335 140.913 90.0306 149.36 90.0306 149.36L107.058 149.331C107.058 149.331 108.158 140.888 99.2446 140.913Z" fill="#9CCC9B"/>
<path d="M108.804 145.106C104.663 144.7 104.193 149.331 104.193 149.331H113.122C113.049 148.218 112.568 147.172 111.771 146.392C110.974 145.612 109.918 145.154 108.804 145.106Z" fill="#CA595B"/>
<path d="M113.26 145.098C109.12 144.692 108.649 149.323 108.649 149.323H117.579C117.506 148.21 117.025 147.164 116.228 146.384C115.431 145.604 114.374 145.146 113.26 145.098Z" fill="#EC686B"/>
<path d="M134.741 141.798C137.753 134.313 125.653 133.059 124.865 137.994C124.078 142.93 115.814 149.311 115.814 149.311L130.3 152.152C130.3 152.152 131.729 149.283 134.741 141.798Z" fill="#9A6FA0"/>
<path d="M128.924 134.824C124.155 134.617 121.683 139.74 121.683 139.74C121.683 139.74 128.762 136.513 129.241 138.067C129.72 139.622 130.763 144.107 130.763 144.107C130.763 144.107 131.944 137.162 132.277 138.25C132.61 139.338 136.17 141.156 136.17 141.156C136.401 136.992 132.273 135.336 132.273 135.336C132.273 135.336 133.694 135.039 128.924 134.824Z" fill="#82C07E"/>
<path d="M120.425 173.925L104.456 173.949C84.9122 173.986 87.993 146.104 87.993 146.104L136.795 146.019C136.795 146.019 139.969 173.892 120.425 173.925Z" fill="url(#paint7_linear_31_2828)"/>
<path d="M120.425 173.925L104.456 173.949C84.9122 173.986 87.993 146.104 87.993 146.104L105.662 146.072C105.662 146.072 104.184 173.953 120.425 173.925Z" fill="url(#paint8_linear_31_2828)"/>
<path d="M53.3938 8.09736C53.3938 8.09736 47.9629 6.67668 45.3205 11.4744C42.678 16.2722 53.2193 31.2094 48.8071 37.3142C44.9104 42.7087 41.3304 39.9972 41.3304 39.9972C41.3304 39.9972 48.8112 48.095 55.1961 38.5157C59.0278 32.7681 57.3595 26.5213 57.1484 21.346C56.9373 16.1708 53.3938 8.09736 53.3938 8.09736Z" fill="#292C47"/>
<path d="M95.8797 247.032C95.8797 247.032 97.3409 250.904 99.3664 251.822C101.392 252.739 105.987 256.985 107.825 257.289C109.664 257.594 114.084 257.931 114.32 260.264C114.555 262.598 114.097 264.729 105.199 263.512C96.3019 262.294 87.8915 258.202 87.8915 258.202C87.8915 258.202 86.0812 249.191 88.9631 244.739C91.8451 240.286 95.8797 247.032 95.8797 247.032Z" fill="#FFA531"/>
<path d="M95.8797 247.032L94.2074 241.479H87.851V247.405C87.851 247.405 97.483 251.01 95.8797 247.032Z" fill="#EEA886"/>
<path d="M40.1005 236.657C40.1005 236.657 40.7338 240.671 41.7242 241.889C42.7146 243.107 44.1596 248.883 46.1648 250.726C48.17 252.569 53.1219 256.721 51.616 258.803C50.1101 260.885 39.5445 258.231 35.7574 251.809C31.9703 245.388 30.6836 244.657 31.1585 242.908C31.6334 241.159 35.2175 234.437 35.116 233.621C35.0146 232.805 40.1005 236.657 40.1005 236.657Z" fill="#FFA531"/>
<path d="M41.6389 233.767C40.9784 234.644 40.4593 235.619 40.1005 236.657C39.8367 237.725 37.4987 238.147 35.6356 235.845C35.2405 235.177 35.0631 234.403 35.1282 233.629C35.2094 232.249 36.7802 228.986 36.7802 228.986L41.6389 233.767Z" fill="#EEA886"/>
<path d="M114.239 120.151C114.239 120.151 111.888 117.03 110.545 116.977C109.201 116.924 109.989 118.097 109.989 118.097C109.989 118.097 109.234 116.924 108.215 117.427C107.196 117.931 108.215 119.258 108.215 119.258C108.102 119.157 107.969 119.079 107.825 119.031C107.681 118.982 107.528 118.963 107.376 118.975C107.225 118.986 107.077 119.029 106.942 119.099C106.807 119.169 106.688 119.266 106.591 119.384C105.78 120.244 106.863 121.153 106.863 121.153C106.863 121.153 105.122 120.748 105.341 122.193C105.715 124.628 108.272 125.947 108.272 125.947C108.272 125.947 108.978 126.353 109.696 125.464C109.696 125.464 111.32 126.187 111.97 124.356C111.97 124.356 113.999 124.048 113.593 122.493C113.557 122.493 115.647 121.949 114.239 120.151Z" fill="#DB9C7C"/>
<path d="M67.7791 142.366C68.116 143.99 70.251 150.671 72.6499 158.119C74.8296 164.91 77.2203 172.326 78.6572 177.046C79.1889 178.808 79.5948 180.2 79.8018 181.044C81.1819 186.642 79.6557 195.434 79.1727 202.772C78.6897 210.111 86.6616 246.228 86.6616 246.228C88.5328 247.097 96.8091 244.775 96.8091 244.775C95.4372 242.165 93.5173 197.199 94.2601 194.338C95.0029 191.476 95.4778 183.508 94.735 180.399C94.565 179.578 94.482 178.741 94.4874 177.903C94.4143 173.974 95.2139 167.479 95.7051 160.36C96.3099 151.397 92.7907 129.13 92.2874 127.137C92.2428 126.954 92.1697 126.698 92.0763 126.382C91.1549 123.26 88.1878 114.391 88.1878 114.391C82.1966 112.621 77.6912 112.309 74.3262 112.999C69.8613 113.912 67.4259 116.591 66.2082 119.989C63.2776 128.094 67.3488 140.288 67.7791 142.366Z" fill="#292C47"/>
<path d="M33.9146 232.647L42.0936 236.105C43.1124 231.125 65.8834 196.509 67.3772 192.649C68.8709 188.789 70.4621 181.32 70.4539 178.581C70.4539 178.094 70.4864 177.265 70.5554 176.198C70.8152 172.046 71.5621 164.22 72.6418 158.123C72.8407 156.987 73.0476 155.911 73.279 154.929C74.4764 149.676 74.651 131.723 74.6469 121.17C74.6469 116.469 74.6104 113.238 74.6104 113.238L74.31 113.007C72.037 111.294 57.461 100.83 52.3913 110.645C51.0763 113.247 50.1557 116.031 49.6596 118.905C48.036 127.778 48.1049 138.709 49.4322 147.809C50.5688 155.594 54.3031 165.669 54.9322 173.815C55.2813 178.309 55.1636 181.933 54.1489 183.711C51.3076 188.696 48.5027 192.913 42.747 210.501C40.8839 216.2 33.9146 232.647 33.9146 232.647Z" fill="#292C47"/>
<path d="M66.2813 5.92985C66.2813 5.92985 77.5532 6.29521 78.0524 22.6166C78.5517 38.9379 74.9879 42.4246 64.9337 39.0394C54.8795 35.6541 51.6729 18.5818 51.4415 15.9354C51.2102 13.2889 50.7839 3.98964 66.2813 5.92985Z" fill="#EEA886"/>
<path d="M45.9861 61.3112C45.9537 66.933 52.436 80.3562 53.4386 84.5045C54.4411 88.6528 56.02 89.9761 54.7009 95.2893C53.3817 100.603 49.2983 118.572 49.4648 120.147C49.6312 121.722 86.5033 127.473 92.0601 126.386C92.0601 126.386 85.2207 101.041 84.7174 98.1347C84.2141 95.2285 85.3019 84.334 85.5292 81.2735C85.7565 78.213 88.8698 71.5928 88.7765 68.516C88.6669 65.3784 87.1203 62.6751 84.9609 59.3304C84.2952 58.2954 83.589 57.24 82.8868 56.2131C80.6016 52.8684 78.3163 49.8323 77.2042 48.7851C76.4902 48.1183 75.7247 47.5089 74.9148 46.9626C74.1844 46.4594 73.3934 46.0502 72.5606 45.7449L62.681 44.1821C62.681 44.1821 56.5315 46.4187 52.9961 47.2548C52.9758 47.2345 46.0673 48.2534 45.9861 61.3112Z" fill="#FFBF55"/>
<path d="M74.8945 46.9626L80.634 55.9696L85.9107 64.2824C85.9107 64.2378 85.5453 62.9795 84.9406 59.3305C84.8269 58.6364 84.7052 57.8611 84.5712 56.9884C84.5341 56.729 84.4785 56.4727 84.4048 56.2212C82.1358 51.0176 75.138 47.0966 74.8863 46.9667L74.8945 46.9626Z" fill="#FFBF55"/>
<path d="M58.4393 31.6966C59.4378 33.576 60.5094 45.2457 60.5094 45.2457C60.5094 45.2457 74.5658 50.5224 73.1248 47.5309C72.4673 46.167 72.2724 44.4014 72.2562 42.8752C72.2483 41.9258 72.2999 40.9768 72.4104 40.0339C72.447 39.7254 72.4713 39.5468 72.4713 39.5468C72.4713 39.5468 57.4367 29.8173 58.4393 31.6966Z" fill="#EEA886"/>
<path d="M64.3979 38.8527C66.5573 42.0268 72.2561 42.8751 72.2561 42.8751C72.2483 41.9257 72.2998 40.9768 72.4104 40.0338C68.7492 40.7522 64.3979 38.8527 64.3979 38.8527Z" fill="#A77860"/>
<path d="M84.3967 56.1563C84.3967 56.1563 84.7052 56.7895 84.9568 59.3305L82.8827 56.2131C82.8827 56.2131 79.1809 50.9364 77.9104 49.5442C76.9916 48.5907 75.9844 47.7263 74.9026 46.9626C74.9026 46.9626 82.1765 50.4452 84.3967 56.1563Z" fill="#FFBF55"/>
<path d="M72.5403 45.7246C72.5403 45.7246 79.1768 55.8722 76.9362 56.7855C74.6956 57.6988 62.5632 55.6246 57.3879 45.9641C57.3879 45.9641 65.0961 41.9944 72.5403 45.7246Z" fill="#EEA886"/>
<path d="M106.656 112.094C106.656 112.094 103.275 113.218 102.24 115.146C102.24 115.146 100.085 112.341 99.3786 111.83L104.493 109.606L106.656 112.094Z" fill="#FFBF55"/>
<path d="M85.5332 81.4399C85.5332 81.3018 85.5332 81.2247 85.5332 81.2085C85.5332 81.1923 85.5332 81.2369 85.5332 81.2734C85.5277 81.3288 85.5277 81.3845 85.5332 81.4399Z" fill="#2F4563"/>
<path d="M84.5915 95.2124C84.9974 95.7035 86.4911 97.5057 87.2745 98.4393C87.2745 98.4393 85.4602 83.3925 85.5333 81.4441C85.3587 83.0028 84.3155 91.8718 84.5915 95.2124Z" fill="#9C7534"/>
<path d="M53.8647 89.0952C56.4348 89.9571 59.0482 90.6833 61.6945 91.2708C65.4897 92.0827 61.5769 96.6207 61.5769 96.6207C61.5769 96.6207 55.0094 96.0037 51.8352 95.7196C50.6906 95.6181 53.8647 89.0952 53.8647 89.0952Z" fill="#EEA886"/>
<path d="M56.909 63.5437C56.909 63.5437 48.4662 60.5563 45.8441 60.3574C45.8441 60.3574 47.1714 45.6434 55.882 47.1371C64.5927 48.6308 56.909 63.5437 56.909 63.5437Z" fill="#FFBF55"/>
<path d="M69.3336 16.2317C69.3336 16.2317 67.1783 24.2401 54.2544 26.6553C54.2544 26.6553 44.1068 9.33132 58.3458 5.69037C72.5849 2.04943 77.1919 12.9966 77.6262 18.3992C77.6262 18.3992 73.7945 15.9719 69.3336 16.2317Z" fill="#292C47"/>
<path d="M77.1108 16.3006C77.1108 16.3006 71.3835 -4.22993 53.8404 7.24493C53.8404 7.24493 45.0282 13.1103 54.5913 27.4792C54.5913 27.467 67.8765 23.956 77.1108 16.3006Z" fill="#292C47"/>
<path d="M63.3669 91.5347C63.3669 91.5347 61.9747 93.2517 62.5876 96.7019C62.5876 96.7019 62.9082 97.1362 64.0407 96.8521C64.0407 96.8521 63.9757 93.1502 65.0879 91.7864C65.0717 91.7986 64.5602 91.4211 63.3669 91.5347Z" fill="#23344A"/>
<path d="M62.8392 25.0358C62.072 23.3595 60.8097 21.886 58.975 23.0063C57.1403 24.1266 58.3499 28.2222 60.7082 28.8513C63.0665 29.4805 63.513 26.5133 62.8392 25.0358Z" fill="#EEA886"/>
<path d="M58.3134 26.2941C58.3134 26.2941 56.2839 29.0624 56.7791 31.786C56.7791 31.786 53.8526 28.7417 54.0636 26.6553C54.2747 24.569 58.3134 26.2941 58.3134 26.2941Z" fill="#292C47"/>
<path d="M88.8616 82.8686C88.8622 83.5478 88.8133 84.2261 88.7155 84.8981C88.4884 86.4379 88.0098 87.9298 87.2989 89.3144C86.8816 90.1327 86.3927 90.9123 85.8377 91.6442C82.2536 96.4014 75.8362 99.5796 68.5056 99.5918C61.0735 99.5918 54.5629 96.3446 50.995 91.5022C50.1641 90.3817 49.4908 89.1525 48.9939 87.8491C48.5244 86.607 48.2332 85.3046 48.1293 83.9808C48.1049 83.6398 48.0928 83.2948 48.0888 82.9457C48.0898 82.3868 48.1237 81.8284 48.1902 81.2734C48.2858 80.48 48.4501 79.6964 48.6814 78.9314C49.0137 77.8223 49.4769 76.7567 50.0614 75.7572C53.333 70.1355 60.3307 66.2429 68.4488 66.2307C76.3842 66.2307 83.2643 69.9163 86.6414 75.327C87.0862 76.0368 87.4717 76.7822 87.7941 77.5554C88.3153 78.8167 88.6502 80.1471 88.7885 81.5048C88.8372 81.9578 88.8616 82.413 88.8616 82.8686Z" fill="url(#paint9_linear_31_2828)"/>
<path d="M87.794 77.5635C86.542 77.669 85.2812 77.591 84.0516 77.3322C81.0114 76.6502 80.0291 76.5204 76.307 76.4879C72.5849 76.4554 70.6244 75.9318 68.465 76.4879C66.3947 77.1199 64.2571 77.5055 62.0964 77.6366C59.0603 77.8517 57.0957 76.7477 53.8606 77.6366C51.5673 78.282 49.6149 78.7163 48.6813 78.9152C49.0136 77.8061 49.4769 76.7405 50.0614 75.741C52.03 74.8521 55.3097 73.5613 56.8968 74.024C59.251 74.7019 61.11 73.6181 64.2476 73.265C67.3853 72.9119 71.3996 72.6074 73.1775 73.265C74.9553 73.9226 79.6435 73.1148 82.1966 74.1864C83.6467 74.702 85.1414 75.0825 86.6616 75.323C87.1 76.0374 87.4788 76.7868 87.794 77.5635Z" fill="#3C6B4A"/>
<path d="M88.8616 82.8688C88.8622 83.5479 88.8133 84.2262 88.7155 84.8983C87.2989 84.8537 85.8742 84.8253 84.7498 84.8618C81.7096 84.9633 79.5583 85.5559 78.089 85.5599C76.6196 85.564 72.6946 84.7846 71.1278 84.6872C69.561 84.5898 65.1488 84.7968 63.3831 84.7968H56.9131C54.364 84.7968 51.3279 85.0038 51.3279 85.0038C51.3279 85.0038 49.5946 84.4518 48.1293 83.9606C48.1049 83.6197 48.0928 83.2747 48.0888 82.9256C48.0898 82.3667 48.1237 81.8083 48.1902 81.2533C49.7814 81.2533 52.4684 81.3548 55.0459 81.2736C58.3783 81.168 60.2414 81.3629 63.5698 81.2736C66.8982 81.1843 70.531 80.2832 73.5672 81.2736C76.6033 82.264 78.3772 82.9865 80.1429 82.8972C81.4296 82.8404 85.7524 81.6795 88.7885 81.509C88.837 81.9607 88.8615 82.4146 88.8616 82.8688Z" fill="#3C6B4A"/>
<path d="M87.3151 89.3307C86.8979 90.149 86.4088 90.9287 85.8538 91.6606C81.6446 92.4277 79.5867 93.0203 77.3299 93.9052C75.0731 94.7901 70.8355 95.1919 70.1535 95.196C69.4716 95.2 61.7473 94.9159 61.7473 94.9159C60.3535 94.3018 58.9083 93.8115 57.4286 93.4506C55.8983 93.1056 53.0326 92.4156 51.0072 91.5185C50.1762 90.398 49.5029 89.1689 49.0061 87.8654C52.4968 89.1156 60.2211 91.1816 61.5444 91.1126C63.2086 91.0111 67.4218 91.4941 71.0506 91.4901C73.6915 91.5418 76.3276 91.2401 78.8886 90.5931C80.7517 90.0979 79.9724 88.8883 83.593 89.213C84.8797 89.3063 86.1583 89.3388 87.3151 89.3307Z" fill="#3C6B4A"/>
<path d="M46.936 56.1319C46.936 56.1319 48.4784 45.6108 56.1906 47.3278C63.5983 48.9839 56.6817 62.7846 56.1378 64.4204C55.5938 66.0562 50.1345 79.4022 49.6433 81.1476C48.1496 86.676 49.5581 86.8059 51.8231 88.1048C58.5083 91.9406 71.9314 92.5941 73.5185 93.6494C75.1056 94.7048 75.3288 97.0671 72.6661 97.1848C69.2037 97.3391 49.4161 95.5125 46.6559 95.2446C43.977 94.9889 38.6474 94.7738 40.0316 85.2554C40.9814 78.8502 46.936 56.1319 46.936 56.1319Z" fill="#FFBF55"/>
<path d="M61.6945 91.2708C61.6945 91.2708 65.8226 91.9568 66.2082 91.8919C66.5938 91.8269 68.2174 89.1561 70.1049 88.6731C71.9923 88.1901 74.3547 87.8207 74.9351 87.4554C75.5155 87.0901 75.682 88.9409 73.8676 89.704C72.0532 90.4671 71.6026 91.4778 75 92.1395C76.8793 92.5129 83.9055 91.7336 83.3251 92.9066C82.98 93.6048 76.2136 94.1243 76.2136 94.1243C76.2136 94.1243 83.5199 94.0797 83.7675 94.5302C84.2587 95.3989 76.9321 95.7155 76.6236 95.6911C76.6236 95.6911 82.903 96.0402 82.9598 96.6044C83.0288 97.3025 76.6683 97.0103 76.7291 97.1321C76.7291 97.1321 81.7178 97.4649 81.6691 97.8911C81.6041 98.4513 77.2041 98.5243 76.3598 98.4269C75.5155 98.3295 66.9022 97.3634 65.4613 97.0793C64.0203 96.7952 61.5769 96.6288 61.5769 96.6288L61.6945 91.2708Z" fill="#EEA886"/>
<path d="M193.901 65.5367C191.527 57.4187 198.849 48.0829 198.849 48.0829C194.331 43.8737 188.494 42.2623 186.002 41.8401C183.51 41.418 176.488 39.9283 176.488 39.9283H170.842H165.2C165.2 39.9283 157.95 41.3449 155.531 41.767C153.035 42.2013 147.413 44.3323 143.529 47.8556C143.529 47.8556 150.068 58.815 147.722 66.9614C147.722 66.9614 149.646 80.1573 150.802 85.1256C151.399 87.6787 150.839 95.7034 150.802 97.8019C150.746 100.81 150.299 109.374 149.702 116.729C149.702 116.729 156.481 120.752 170.988 121.068C185.349 120.114 192.622 116.656 192.622 116.656C191.701 107.897 191.1 100.521 190.735 97.672C190.467 95.5897 190.808 87.6665 191.044 85.0565C191.364 81.4521 193.901 65.5367 193.901 65.5367Z" fill="#FFBF55"/>
<path d="M172.015 48.8054C163.751 49.3656 163.381 40.2815 163.381 40.2815C163.381 40.2815 163.966 39.9608 164.234 38.459C164.389 37.4899 164.418 36.5048 164.319 35.5284C164.221 34.3524 164.049 33.1838 163.803 32.0295C162.318 24.8247 176.537 28.0719 176.537 28.0719C176.537 28.0719 176.788 36.7501 178.469 40.1841C178.469 40.2003 180.267 48.2412 172.015 48.8054Z" fill="#EEA886"/>
<path d="M171.455 139.508L194.413 135.21C194.413 135.21 192.947 119.087 192.744 116.762C192.57 114.765 190.561 95.4354 190.966 85.0606C190.966 85.0606 185.893 78.9111 185.284 72.4126L171.162 72.2665H171.024L156.879 72.6156C156.282 79.11 150.79 85.1295 150.79 85.1295C150.944 96.0889 149.731 114.838 149.572 116.835C149.378 119.16 146.772 134.694 146.772 134.694L170.939 139.516V139.634L171.195 139.577L171.451 139.634L171.455 139.508Z" fill="#538742"/>
<path d="M143.33 247.418C143.33 247.418 141.872 250.949 140.643 252.345C139.413 253.742 134.692 256.25 134.676 260.402C134.676 264.9 142.64 263.65 145.761 263.467C148.882 263.284 149.118 260.894 150.429 258.345C151.74 255.795 153.063 256.222 153.307 254.168C153.55 252.114 152.288 247.515 152.288 247.515L143.33 247.418Z" fill="#FFA531"/>
<path d="M143.204 246.119L143.451 248.432C146.33 249.365 149.43 249.365 152.308 248.432L152.272 245.522L143.204 246.119Z" fill="#2F6B8C"/>
<path d="M190.447 247.34C190.447 247.34 191.912 250.864 193.15 252.256C194.388 253.648 199.109 256.14 199.141 260.293C199.178 264.79 191.19 263.54 188.064 263.398C184.939 263.256 184.703 260.833 183.384 258.288C182.065 255.743 180.738 256.177 180.49 254.123C180.243 252.069 181.485 247.466 181.485 247.466L190.447 247.34Z" fill="#FFA531"/>
<path d="M190.577 246.042L190.341 248.355C187.463 249.288 184.363 249.288 181.484 248.355L181.509 245.445L190.577 246.042Z" fill="#2F6B8C"/>
<path d="M197.104 188.334C197.104 193.883 192.115 246.691 192.115 246.691C191.567 248.542 181.968 248.445 180.121 247.523C178.274 246.602 181.578 191.509 181.225 185.911C180.872 180.314 170.951 141.225 169.328 141.416C167.704 141.607 159.383 189.877 158.096 194.135C156.81 198.393 153.343 247.308 153.343 247.308C149.284 249.719 141.633 247.418 141.633 247.418C141.633 247.418 142.14 192.678 142.692 191.196C143.244 189.715 143.098 185.465 143.265 171.595C143.387 161.232 147.165 131.041 149.069 116.441C149.138 115.921 149.203 115.422 149.264 114.947C149.637 112.106 149.918 110.016 150.051 109.017C150.108 108.583 150.141 108.351 150.141 108.351C150.66 108.112 151.204 107.893 151.764 107.686C165.301 102.815 191.429 107.905 191.429 107.905L191.478 108.274C191.51 108.566 191.567 109.029 191.636 109.622C191.79 110.909 192.018 112.824 192.278 115.049C192.278 115.049 192.278 115.081 192.278 115.097C192.278 115.114 192.277 115.231 192.298 115.3C193.223 123.211 194.53 134.784 194.413 136.001C194.242 137.86 197.096 182.786 197.104 188.334Z" fill="#538742"/>
<path d="M177.71 86.5664L171.11 86.5786L164.51 86.5908L158.368 92.7524L158.401 111.485L171.15 111.46L183.904 111.44L183.871 92.7077L177.71 86.5664Z" fill="#406933"/>
<path d="M195.61 71.8323C195.61 71.8323 198.541 89.1075 198.106 92.0665C197.672 95.0256 191.413 126.487 191.413 126.487L198.516 129.807C198.516 129.807 208.035 97.189 208.189 92.2532C208.343 87.3174 207.207 70.371 205.417 62.9349C203.626 55.4988 201.435 50.4168 197.595 46.7759C193.755 43.1349 187.041 42.0593 187.041 42.0593L195.61 71.8323Z" fill="#FFBF55"/>
<path d="M146.577 71.9095C146.577 71.9095 143.707 89.1928 144.142 92.1478C144.576 95.1027 150.563 124.214 150.563 124.214L143.853 129.872C143.853 129.872 134.225 97.2865 134.059 92.3507C133.892 87.4149 134.964 70.4685 136.73 63.0243C138.495 55.58 140.667 50.49 144.495 46.8369C148.322 43.1837 155.016 42.0878 155.016 42.0878L146.577 71.9095Z" fill="#FFBF55"/>
<path d="M185.276 72.4126C185.276 72.4126 185.917 55.3079 192.61 43.6991C192.61 43.6991 191.393 42.522 188.803 42.4408C188.803 42.4408 182.398 57.9463 182.024 72.3802C181.651 86.8141 185.276 72.4126 185.276 72.4126Z" fill="#538742"/>
<path d="M156.871 72.6156C156.871 72.6156 156.201 53.6883 149.824 43.626C149.824 43.626 151.387 42.0024 153.096 42.4408C153.096 42.4408 159.663 58.1005 160.085 72.5344C160.508 86.9683 156.871 72.6156 156.871 72.6156Z" fill="#538742"/>
<path d="M197.039 131.837C196.109 132.955 194.931 133.839 193.598 134.419C192.265 134.999 190.814 135.259 189.363 135.177C183.68 134.881 181.992 132.364 182.373 131.256C182.755 130.148 196.227 129.142 197.039 131.837Z" fill="#EEA886"/>
<path d="M195.306 133.412C195.306 133.412 199.559 131.995 198.829 130.875C198.098 129.755 195.63 131.455 195.63 131.455L195.306 133.412Z" fill="#EEA886"/>
<path d="M145.42 131.926C146.354 133.04 147.536 133.92 148.871 134.495C150.206 135.07 151.657 135.325 153.108 135.238C158.791 134.922 160.467 132.397 160.085 131.293C159.704 130.189 146.224 129.239 145.42 131.926Z" fill="#EEA886"/>
<path d="M147.161 133.493C147.161 133.493 142.944 131.987 143.671 130.863C144.397 129.738 146.829 131.537 146.829 131.537L147.161 133.493Z" fill="#EEA886"/>
<path d="M201.491 102.425C201.491 104.029 201.016 105.598 200.125 106.932C199.234 108.267 197.968 109.307 196.487 109.922C195.005 110.538 193.374 110.7 191.8 110.389C190.226 110.078 188.78 109.308 187.643 108.175C186.507 107.043 185.731 105.599 185.415 104.026C185.098 102.453 185.255 100.822 185.865 99.338C186.475 97.8542 187.511 96.5843 188.843 95.6889C190.174 94.7935 191.741 94.3126 193.345 94.307C194.413 94.3033 195.472 94.5104 196.46 94.9167C197.449 95.323 198.347 95.9204 199.104 96.6746C199.861 97.4288 200.461 98.325 200.871 99.3118C201.281 100.299 201.491 101.357 201.491 102.425Z" fill="#C44A4A"/>
<path d="M190.885 99.5919C190.885 101.196 190.41 102.765 189.519 104.099C188.628 105.433 187.362 106.474 185.88 107.089C184.399 107.704 182.768 107.867 181.194 107.556C179.62 107.245 178.173 106.475 177.037 105.342C175.9 104.21 175.125 102.766 174.809 101.193C174.492 99.6201 174.649 97.9887 175.259 96.5049C175.869 95.021 176.905 93.7512 178.236 92.8558C179.568 91.9603 181.134 91.4794 182.739 91.4738C183.807 91.4701 184.866 91.6773 185.854 92.0836C186.842 92.4899 187.741 93.0873 188.497 93.8415C189.254 94.5957 189.855 95.4919 190.265 96.4787C190.674 97.4654 190.885 98.5234 190.885 99.5919Z" fill="#CF4D4D"/>
<path d="M185.426 95.6872C185.426 97.2916 184.95 98.86 184.06 100.194C183.169 101.529 181.903 102.569 180.421 103.185C178.939 103.8 177.308 103.962 175.735 103.651C174.161 103.34 172.714 102.57 171.577 101.438C170.441 100.305 169.666 98.8612 169.349 97.2883C169.033 95.7155 169.189 94.0841 169.8 92.6002C170.41 91.1164 171.446 89.8466 172.777 88.9511C174.108 88.0557 175.675 87.5748 177.279 87.5692C178.348 87.5654 179.407 87.7727 180.395 88.179C181.383 88.5853 182.281 89.1827 183.038 89.9369C183.795 90.6911 184.395 91.5872 184.805 92.574C185.215 93.5608 185.426 94.6188 185.426 95.6872Z" fill="#C44A4A"/>
<path d="M174.458 94.3395C174.458 95.9439 173.983 97.5123 173.092 98.8467C172.201 100.181 170.935 101.222 169.454 101.837C167.972 102.452 166.341 102.615 164.767 102.304C163.193 101.993 161.746 101.222 160.61 100.09C159.474 98.9573 158.698 97.5135 158.382 95.9406C158.065 94.3677 158.222 92.7363 158.832 91.2525C159.442 89.7686 160.478 88.4988 161.81 87.6034C163.141 86.7079 164.708 86.2271 166.312 86.2215C167.38 86.2177 168.439 86.425 169.427 86.8313C170.415 87.2375 171.314 87.8349 172.071 88.5891C172.827 89.3433 173.428 90.2395 173.838 91.2263C174.247 92.213 174.458 93.271 174.458 94.3395Z" fill="#D85151"/>
<path d="M185.438 103.306C185.438 104.91 184.963 106.479 184.072 107.813C183.181 109.147 181.915 110.188 180.433 110.803C178.951 111.418 177.321 111.581 175.747 111.27C174.173 110.959 172.726 110.189 171.59 109.056C170.453 107.924 169.678 106.48 169.361 104.907C169.045 103.334 169.202 101.703 169.812 100.219C170.422 98.735 171.458 97.4652 172.789 96.5697C174.12 95.6743 175.687 95.1934 177.292 95.1878C178.36 95.184 179.419 95.3913 180.407 95.7976C181.395 96.2039 182.293 96.8012 183.05 97.5554C183.807 98.3096 184.408 99.2058 184.817 100.193C185.227 101.179 185.438 102.237 185.438 103.306Z" fill="#D85151"/>
<path d="M176.346 99.6162C176.346 101.221 175.87 102.789 174.98 104.123C174.089 105.458 172.823 106.498 171.341 107.114C169.859 107.729 168.228 107.891 166.654 107.58C165.08 107.269 163.634 106.499 162.498 105.367C161.361 104.234 160.586 102.79 160.269 101.217C159.953 99.6445 160.109 98.0131 160.72 96.5292C161.33 95.0453 162.366 93.7755 163.697 92.8801C165.028 91.9847 166.595 91.5038 168.199 91.4982C169.268 91.4944 170.326 91.7017 171.315 92.108C172.303 92.5143 173.201 93.1116 173.958 93.8658C174.715 94.62 175.315 95.5162 175.725 96.503C176.135 97.4898 176.346 98.5478 176.346 99.6162Z" fill="#C44A4A"/>
<path d="M168.305 104.556C168.305 106.16 167.829 107.729 166.939 109.063C166.048 110.398 164.782 111.438 163.3 112.053C161.818 112.669 160.187 112.831 158.613 112.52C157.039 112.209 155.593 111.439 154.457 110.306C153.32 109.174 152.545 107.73 152.228 106.157C151.912 104.584 152.069 102.953 152.679 101.469C153.289 99.9851 154.325 98.7153 155.656 97.8199C156.987 96.9245 158.554 96.4436 160.158 96.438C161.227 96.4342 162.286 96.6414 163.274 97.0477C164.262 97.454 165.16 98.0514 165.917 98.8056C166.674 99.5598 167.274 100.456 167.684 101.443C168.094 102.43 168.305 103.488 168.305 104.556Z" fill="#C44A4A"/>
<path d="M166.515 101.471C166.515 103.076 166.039 104.644 165.149 105.979C164.258 107.313 162.992 108.353 161.51 108.969C160.028 109.584 158.397 109.746 156.823 109.435C155.25 109.124 153.803 108.354 152.667 107.222C151.53 106.089 150.755 104.645 150.438 103.072C150.122 101.5 150.278 99.8682 150.889 98.3843C151.499 96.9005 152.535 95.6307 153.866 94.7352C155.197 93.8398 156.764 93.3589 158.368 93.3533C159.437 93.3495 160.496 93.5568 161.484 93.9631C162.472 94.3694 163.37 94.9667 164.127 95.7209C164.884 96.4751 165.484 97.3713 165.894 98.3581C166.304 99.3449 166.515 100.403 166.515 101.471Z" fill="#D85151"/>
<path d="M158.056 101.881C158.056 103.486 157.58 105.054 156.69 106.388C155.799 107.723 154.533 108.763 153.051 109.379C151.569 109.994 149.938 110.156 148.364 109.845C146.79 109.534 145.344 108.764 144.207 107.632C143.071 106.499 142.296 105.055 141.979 103.482C141.663 101.909 141.819 100.278 142.43 98.7942C143.04 97.3104 144.076 96.0405 145.407 95.1451C146.738 94.2497 148.305 93.7688 149.909 93.7632C150.978 93.7594 152.037 93.9667 153.025 94.373C154.013 94.7792 154.911 95.3766 155.668 96.1308C156.425 96.885 157.025 97.7812 157.435 98.768C157.845 99.7548 158.056 100.813 158.056 101.881Z" fill="#C44A4A"/>
<path d="M203.737 101.753L138.325 101.867L138.377 131.271L203.788 131.157L203.737 101.753Z" fill="#6B4528"/>
<path d="M177.831 25.5553C176.801 27.7864 175.528 29.8975 174.036 31.8509C169.092 38.2154 155.738 38.1139 157.337 20.9402C157.646 17.6483 157.707 14.9531 158.368 12.7774C160.719 5.02877 166.275 3.72991 166.275 3.72991C170.379 3.49449 177.568 4.5011 179.97 9.84278C181.687 13.6461 180.466 19.9538 177.831 25.5553Z" fill="#EEA987"/>
<path d="M177.831 25.5553C177.831 25.5553 177.239 25.7136 175.1 21.411C174.669 20.5464 174.341 21.1634 174.154 20.7819L170.757 19.4627C170.757 19.4627 174.105 13.8369 169.705 12.2823C165.22 10.6992 158.368 12.7774 158.368 12.7774C160.719 5.02877 166.275 3.72991 166.275 3.72991C170.379 3.49449 177.568 4.5011 179.971 9.84278C181.687 13.6461 180.466 19.9538 177.831 25.5553Z" fill="#665249"/>
<path d="M173.468 18.1801C173.72 17.0111 176.021 16.0045 177.003 18.5089C177.986 21.0133 174.718 23.6801 173.854 23.1321C172.989 22.5842 173.054 20.1122 173.468 18.1801Z" fill="#EEA987"/>
<path d="M180.721 18.3545C180.721 18.3545 169.786 10.8168 157.049 13.5364C157.049 13.5364 157.78 -2.39121 172.287 0.308046C185.921 2.849 181.184 16.5564 180.721 18.3545Z" fill="#C44A4A"/>
<path d="M173.695 14.9409C173.695 14.9409 155.669 16.9095 148.728 15.4726C141.787 14.0357 157.252 11.8804 157.252 11.8804C157.252 11.8804 163.024 10.0539 173.695 14.9409Z" fill="#C44A4A"/>
<path d="M174.669 31.0065C174.669 31.0065 171.727 38.9257 164.234 38.4751C164.389 37.5061 164.418 36.521 164.319 35.5445C164.319 35.5445 170.801 36.7379 174.669 31.0065Z" fill="#A77860"/>
<path d="M84.7332 252.745C86.0274 252.991 91.0262 253.5 93.3304 247.339C92.8691 247.744 92.304 248.013 91.6985 248.116C91.093 248.219 90.4709 248.151 89.9017 247.92C88.425 247.373 86.2438 248.264 85.1278 250.071C85.4843 246.159 84.7586 243.473 84.6101 239.887C84.6101 239.344 84.5846 238.852 84.6101 238.398C85.497 238.237 90.8904 236.959 90.5509 230C90.2854 230.554 89.8718 231.024 89.3557 231.357C88.8396 231.69 88.2414 231.874 87.6272 231.888C85.8789 231.977 84.0203 234.052 84.0415 236.48C83.6937 237.431 83.5226 238.438 83.5365 239.45C83.5111 241.177 83.9608 242.955 84.2282 244.907C83.9754 244.358 83.6562 243.842 83.2777 243.371C81.0456 240.621 78.6099 240.286 78.1473 239.582C78.1473 239.582 77.2987 242.718 80.7655 244.827C82.8873 246.1 83.9311 247.343 84.4149 248.103C84.3569 249.643 84.0369 251.163 83.4686 252.596C81.3172 258.113 84.2876 263.85 84.2876 263.85L86.1887 262.674C86.1887 262.674 83.2989 259.348 84.6186 253.403C84.6653 253.173 84.6907 252.97 84.7332 252.745Z" fill="#ADD14D"/>
<path d="M70 265.887C70 265.887 84.2537 250.016 101.448 265.836L70 265.887Z" fill="#877373"/>
<path d="M18.7332 243.745C20.0274 243.991 25.0262 244.5 27.3304 238.339C26.8691 238.744 26.304 239.013 25.6985 239.116C25.093 239.219 24.4709 239.151 23.9017 238.92C22.425 238.373 20.2438 239.264 19.1278 241.071C19.4843 237.159 18.7586 234.473 18.6101 230.887C18.6101 230.344 18.5846 229.852 18.6101 229.398C19.497 229.237 24.8904 227.959 24.5509 221C24.2854 221.554 23.8718 222.024 23.3557 222.357C22.8396 222.69 22.2414 222.874 21.6272 222.888C19.8789 222.977 18.0203 225.052 18.0415 227.48C17.6937 228.431 17.5226 229.438 17.5365 230.45C17.5111 232.177 17.9608 233.955 18.2282 235.907C17.9754 235.358 17.6562 234.842 17.2777 234.371C15.0456 231.621 12.6099 231.286 12.1473 230.582C12.1473 230.582 11.2987 233.718 14.7655 235.827C16.8873 237.1 17.9311 238.343 18.4149 239.103C18.3569 240.643 18.0369 242.163 17.4686 243.596C15.3172 249.113 18.2876 254.85 18.2876 254.85L20.1887 253.674C20.1887 253.674 17.2989 250.348 18.6186 244.403C18.6653 244.173 18.6907 243.97 18.7332 243.745Z" fill="#ADD14D"/>
<path d="M4 256.887C4 256.887 18.2537 241.016 35.4481 256.836L4 256.887Z" fill="#877373"/>
<path d="M50.7332 263.745C52.0274 263.991 57.0262 264.5 59.3304 258.339C58.8691 258.744 58.304 259.013 57.6985 259.116C57.093 259.219 56.4709 259.151 55.9017 258.92C54.425 258.373 52.2438 259.264 51.1278 261.071C51.4843 257.159 50.7586 254.473 50.6101 250.887C50.6101 250.344 50.5846 249.852 50.6101 249.398C51.497 249.237 56.8904 247.959 56.5509 241C56.2854 241.554 55.8718 242.024 55.3557 242.357C54.8396 242.69 54.2414 242.874 53.6272 242.888C51.8789 242.977 50.0203 245.052 50.0415 247.48C49.6937 248.431 49.5226 249.438 49.5365 250.45C49.5111 252.177 49.9608 253.955 50.2282 255.907C49.9754 255.358 49.6562 254.842 49.2777 254.371C47.0456 251.621 44.6099 251.286 44.1473 250.582C44.1473 250.582 43.2987 253.718 46.7655 255.827C48.8873 257.1 49.9311 258.343 50.4149 259.103C50.3569 260.643 50.0369 262.163 49.4686 263.596C47.3172 269.113 50.2876 274.85 50.2876 274.85L52.1887 273.674C52.1887 273.674 49.2989 270.348 50.6186 264.403C50.6653 264.173 50.6907 263.97 50.7332 263.745Z" fill="#ADD14D"/>
<path d="M36 276.887C36 276.887 50.2537 261.016 67.4481 276.836L36 276.887Z" fill="#877373"/>
<path d="M166.733 259.745C168.027 259.991 173.026 260.5 175.33 254.339C174.869 254.744 174.304 255.013 173.699 255.116C173.093 255.219 172.471 255.151 171.902 254.92C170.425 254.373 168.244 255.264 167.128 257.071C167.484 253.159 166.759 250.473 166.61 246.887C166.61 246.344 166.585 245.852 166.61 245.398C167.497 245.237 172.89 243.959 172.551 237C172.285 237.554 171.872 238.024 171.356 238.357C170.84 238.69 170.241 238.874 169.627 238.888C167.879 238.977 166.02 241.052 166.041 243.48C165.694 244.431 165.523 245.438 165.537 246.45C165.511 248.177 165.961 249.955 166.228 251.907C165.975 251.358 165.656 250.842 165.278 250.371C163.046 247.621 160.61 247.286 160.147 246.582C160.147 246.582 159.299 249.718 162.766 251.827C164.887 253.1 165.931 254.343 166.415 255.103C166.357 256.643 166.037 258.163 165.469 259.596C163.317 265.113 166.288 270.85 166.288 270.85L168.189 269.674C168.189 269.674 165.299 266.348 166.619 260.403C166.665 260.173 166.691 259.97 166.733 259.745Z" fill="#ADD14D"/>
<path d="M152 272.887C152 272.887 166.254 257.016 183.448 272.836L152 272.887Z" fill="#877373"/>
<path d="M209.733 240.745C211.027 240.991 216.026 241.5 218.33 235.339C217.869 235.744 217.304 236.013 216.699 236.116C216.093 236.219 215.471 236.151 214.902 235.92C213.425 235.373 211.244 236.264 210.128 238.071C210.484 234.159 209.759 231.473 209.61 227.887C209.61 227.344 209.585 226.852 209.61 226.398C210.497 226.237 215.89 224.959 215.551 218C215.285 218.554 214.872 219.024 214.356 219.357C213.84 219.69 213.241 219.874 212.627 219.888C210.879 219.977 209.02 222.052 209.041 224.48C208.694 225.431 208.523 226.438 208.537 227.45C208.511 229.177 208.961 230.955 209.228 232.907C208.975 232.358 208.656 231.842 208.278 231.371C206.046 228.621 203.61 228.286 203.147 227.582C203.147 227.582 202.299 230.718 205.766 232.827C207.887 234.1 208.931 235.343 209.415 236.103C209.357 237.643 209.037 239.163 208.469 240.596C206.317 246.113 209.288 251.85 209.288 251.85L211.189 250.674C211.189 250.674 208.299 247.348 209.619 241.403C209.665 241.173 209.691 240.97 209.733 240.745Z" fill="#ADD14D"/>
<path d="M195 253.887C195 253.887 209.254 238.016 226.448 253.836L195 253.887Z" fill="#877373"/>
<defs>
<linearGradient id="paint0_linear_31_2828" x1="126.388" y1="226.684" x2="150.125" y2="234.955" gradientUnits="userSpaceOnUse">
<stop stop-color="#3076A1"/>
<stop offset="1" stop-color="#639C38"/>
</linearGradient>
<linearGradient id="paint1_linear_31_2828" x1="113.986" y1="227.894" x2="138.077" y2="236.29" gradientUnits="userSpaceOnUse">
<stop stop-color="#3076A1"/>
<stop offset="1" stop-color="#639C38"/>
</linearGradient>
<linearGradient id="paint2_linear_31_2828" x1="144.18" y1="259.328" x2="148.352" y2="239.567" gradientUnits="userSpaceOnUse">
<stop stop-color="#3076A1"/>
<stop offset="1" stop-color="#639C38"/>
</linearGradient>
<linearGradient id="paint3_linear_31_2828" x1="160.314" y1="219.97" x2="184.05" y2="228.242" gradientUnits="userSpaceOnUse">
<stop stop-color="#3076A1"/>
<stop offset="1" stop-color="#639C38"/>
</linearGradient>
<linearGradient id="paint4_linear_31_2828" x1="167.315" y1="227.773" x2="204.933" y2="240.882" gradientUnits="userSpaceOnUse">
<stop stop-color="#3076A1"/>
<stop offset="1" stop-color="#639C38"/>
</linearGradient>
<linearGradient id="paint5_linear_31_2828" x1="147.914" y1="221.182" x2="172.005" y2="229.577" gradientUnits="userSpaceOnUse">
<stop stop-color="#3076A1"/>
<stop offset="1" stop-color="#639C38"/>
</linearGradient>
<linearGradient id="paint6_linear_31_2828" x1="178.214" y1="252.549" x2="182.385" y2="232.79" gradientUnits="userSpaceOnUse">
<stop stop-color="#3076A1"/>
<stop offset="1" stop-color="#639C38"/>
</linearGradient>
<linearGradient id="paint7_linear_31_2828" x1="117.026" y1="140.564" x2="108.229" y2="162.782" gradientUnits="userSpaceOnUse">
<stop stop-color="#FACE87"/>
<stop offset="1" stop-color="#FAD7A0"/>
</linearGradient>
<linearGradient id="paint8_linear_31_2828" x1="87.8589" y1="159.99" x2="120.428" y2="159.933" gradientUnits="userSpaceOnUse">
<stop stop-color="#D4A862"/>
<stop offset="1" stop-color="#FAD7A0"/>
</linearGradient>
<linearGradient id="paint9_linear_31_2828" x1="48.1123" y1="82.909" x2="88.8851" y2="82.8379" gradientUnits="userSpaceOnUse">
<stop stop-color="#4F8D62"/>
<stop offset="1" stop-color="#639C38"/>
</linearGradient>
</defs>
</svg>
